<?xml version="1.0" encoding="UTF-8"?>
<svg xmlns="http://www.w3.org/2000/svg" viewBox="0 0 1740 820" width="1740" height="820" style="background:#f8fafc; font-family:'Inter', -apple-system, BlinkMacSystemFont, 'Segoe UI', Roboto, sans-serif;">
  <defs>
    <!-- Arrow Marker (Strict perpendicular auto orientation with tip at box border) -->
    <marker id="bpmn-arrow" viewBox="0 0 10 10" refX="10" refY="5" markerWidth="6" markerHeight="6" orient="auto">
      <path d="M 0 1.5 L 10 5 L 0 8.5 z" fill="#334155" />
    </marker>
    <!-- Highlight Arrow Marker -->
    <marker id="bpmn-arrow-blue" viewBox="0 0 10 10" refX="10" refY="5" markerWidth="6" markerHeight="6" orient="auto">
      <path d="M 0 1.5 L 10 5 L 0 8.5 z" fill="#0070f2" />
    </marker>
    <!-- Subtle Box Shadow -->
    <filter id="task-shadow" x="-5%" y="-5%" width="115%" height="120%" filterUnits="userSpaceOnUse">
      <feDropShadow dx="0" dy="2" stdDeviation="2" flood-color="#0f172a" flood-opacity="0.06" />
    </filter>
  </defs>

  <!-- Title & Metadata Banner -->
  <rect x="15" y="10" width="1710" height="45" rx="6" fill="#0f172a" />
  <text x="35" y="38" font-size="16" font-weight="700" fill="#ffffff" letter-spacing="-0.3">Personal Library · BPMN 2.0 Process Definition (Static Export)</text>
  <text x="710" y="38" font-size="12" font-weight="500" fill="#94a3b8">Process ID: Process_DocumentIngestionRAG · Spec Version: 1.0.0 · Dual AI &amp; Qdrant RAG</text>
  <rect x="1500" y="21" width="210" height="23" rx="4" fill="#64748b" />
  <text x="1605" y="37" font-size="11" font-weight="600" fill="#ffffff" text-anchor="middle">Not Executed · View/Download Only</text>

  <!-- Master Collaboration Pool -->
  <rect x="15" y="65" width="1710" height="740" rx="8" fill="#ffffff" stroke="#cbd5e1" stroke-width="2" />
  
  <!-- Pool Header (Left Vertical Strip) -->
  <rect x="15" y="65" width="45" height="740" rx="8" fill="#1e293b" />
  <text x="-435" y="42" font-size="14" font-weight="700" fill="#ffffff" transform="rotate(-90)" text-anchor="middle" letter-spacing="1">
    PERSONAL LIBRARY - ENTERPRISE DOCUMENT INGESTION &amp; RAG ENGINE
  </text>

  <!-- ======================================================== -->
  <!-- SWIMLANES                                                -->
  <!-- ======================================================== -->

  <!-- Lane 1: SAP UI5 Client & REST Ingestion -->
  <rect x="60" y="65" width="1665" height="175" fill="#f8fafc" stroke="#e2e8f0" stroke-width="1.5" />
  <rect x="60" y="65" width="35" height="175" fill="#3b82f6" fill-opacity="0.12" stroke="#e2e8f0" stroke-width="1" />
  <text x="-152" y="82" font-size="11" font-weight="700" fill="#1e40af" transform="rotate(-90)" text-anchor="middle">
    SAP UI5 Client &amp; Ingestion
  </text>

  <!-- Lane 2: Spring AI Orchestration Tier -->
  <rect x="60" y="240" width="1665" height="200" fill="#ffffff" stroke="#e2e8f0" stroke-width="1.5" />
  <rect x="60" y="240" width="35" height="200" fill="#6366f1" fill-opacity="0.12" stroke="#e2e8f0" stroke-width="1" />
  <text x="-340" y="82" font-size="11" font-weight="700" fill="#4338ca" transform="rotate(-90)" text-anchor="middle">
    Spring AI Orchestrator Tier
  </text>

  <!-- Lane 3: Ollama AI Models -->
  <rect x="60" y="440" width="1665" height="200" fill="#fafafa" stroke="#e2e8f0" stroke-width="1.5" />
  <rect x="60" y="440" width="35" height="200" fill="#059669" fill-opacity="0.12" stroke="#e2e8f0" stroke-width="1" />
  <text x="-540" y="82" font-size="11" font-weight="700" fill="#047857" transform="rotate(-90)" text-anchor="middle">
    Ollama AI Models (Spring AI)
  </text>

  <!-- Lane 4: Qdrant Vector Database -->
  <rect x="60" y="640" width="1665" height="165" fill="#f8fafc" stroke="#e2e8f0" stroke-width="1.5" />
  <rect x="60" y="640" width="35" height="165" fill="#8b5cf6" fill-opacity="0.12" stroke="#e2e8f0" stroke-width="1" />
  <text x="-722" y="82" font-size="11" font-weight="700" fill="#6d28d9" transform="rotate(-90)" text-anchor="middle">
    Qdrant Vector Database
  </text>

  <!-- ======================================================== -->
  <!-- NODES & TASKS                                            -->
  <!-- ======================================================== -->

  <!-- Start Event: Document Upload Received (Lane 1) -->
  <circle cx="130" cy="150" r="20" fill="#ecfdf5" stroke="#10b981" stroke-width="2.5" />
  <polygon points="124,142 139,150 124,158" fill="#10b981" />
  <text x="130" y="190" font-size="10.5" font-weight="600" fill="#1e293b" text-anchor="middle">Document Upload</text>
  <text x="130" y="204" font-size="9.5" font-weight="400" fill="#64748b" text-anchor="middle">Received (UI/REST)</text>

  <!-- Service Task: Extract Text & Infer BibTeX (Lane 2) -->
  <rect x="200" y="300" width="140" height="80" rx="8" fill="#ffffff" stroke="#0070f2" stroke-width="2" filter="url(#task-shadow)" />
  <!-- Service Task Icon (Gears) -->
  <circle cx="218" cy="318" r="8" fill="#eff6ff" stroke="#0070f2" stroke-width="1.2" />
  <path d="M 216 314 L 220 314 M 216 322 L 220 322 M 214 316 L 214 320 M 222 316 L 222 320" stroke="#0070f2" stroke-width="1.5" />
  <text x="232" y="322" font-size="9" font-weight="700" fill="#0070f2" letter-spacing="0.5">SERVICE TASK</text>
  <text x="270" y="342" font-size="11" font-weight="600" fill="#0f172a" text-anchor="middle">Extract Text &amp;</text>
  <text x="270" y="356" font-size="11" font-weight="600" fill="#0f172a" text-anchor="middle">Infer BibTeX</text>
  <rect x="210" y="365" width="120" height="12" rx="3" fill="#f1f5f9" />
  <text x="270" y="374" font-size="8" font-family="monospace" font-weight="500" fill="#475569" text-anchor="middle">${bibTeXExtractionDelegate}</text>

  <!-- Service Task: Validate BibTeX Quality & Key (Lane 2) -->
  <rect x="380" y="300" width="140" height="80" rx="8" fill="#ffffff" stroke="#6366f1" stroke-width="2" filter="url(#task-shadow)" />
  <circle cx="398" cy="318" r="8" fill="#eef2ff" stroke="#6366f1" stroke-width="1.2" />
  <path d="M 396 314 L 400 314 M 396 322 L 400 322 M 394 316 L 394 320 M 402 316 L 402 320" stroke="#6366f1" stroke-width="1.5" />
  <text x="412" y="322" font-size="9" font-weight="700" fill="#6366f1" letter-spacing="0.5">SERVICE TASK</text>
  <text x="450" y="342" font-size="11" font-weight="600" fill="#0f172a" text-anchor="middle">Validate BibTeX</text>
  <text x="450" y="356" font-size="11" font-weight="600" fill="#0f172a" text-anchor="middle">Quality &amp; Key</text>
  <rect x="390" y="365" width="120" height="12" rx="3" fill="#f1f5f9" />
  <text x="450" y="374" font-size="8" font-family="monospace" font-weight="500" fill="#475569" text-anchor="middle">${bibTeXValidationDelegate}</text>

  <!-- Exclusive Gateway: Metadata Valid? (Lane 2) -->
  <polygon points="565,340 590,315 615,340 590,365" fill="#fef3c7" stroke="#d97706" stroke-width="2.5" />
  <text x="590" y="345" font-size="15" font-weight="800" fill="#b45309" text-anchor="middle">✕</text>
  <text x="590" y="382" font-size="10" font-weight="600" fill="#1e293b" text-anchor="middle">Metadata</text>
  <text x="590" y="394" font-size="10" font-weight="600" fill="#1e293b" text-anchor="middle">Complete?</text>

  <!-- User Task: Librarian Review (Lane 1) -->
  <rect x="520" y="110" width="140" height="80" rx="8" fill="#ffffff" stroke="#8b5cf6" stroke-width="2" filter="url(#task-shadow)" />
  <circle cx="538" cy="128" r="8" fill="#f5f3ff" stroke="#8b5cf6" stroke-width="1.2" />
  <circle cx="538" cy="126" r="3" fill="#8b5cf6" />
  <path d="M 533 133 C 533 130, 543 130, 543 133" fill="none" stroke="#8b5cf6" stroke-width="1.2" />
  <text x="552" y="132" font-size="9" font-weight="700" fill="#8b5cf6" letter-spacing="0.5">USER TASK</text>
  <text x="590" y="152" font-size="11" font-weight="600" fill="#0f172a" text-anchor="middle">Review &amp; Correct</text>
  <text x="590" y="166" font-size="11" font-weight="600" fill="#0f172a" text-anchor="middle">Metadata</text>
  <rect x="530" y="174" width="120" height="12" rx="3" fill="#f1f5f9" />
  <text x="590" y="183" font-size="8" font-family="monospace" font-weight="500" fill="#6d28d9" text-anchor="middle">LIBRARY_ADMIN Group</text>

  <!-- Parallel Fork Gateway (Lane 2) -->
  <polygon points="665,340 690,315 715,340 690,365" fill="#dcfce7" stroke="#16a34a" stroke-width="2.5" />
  <text x="690" y="347" font-size="18" font-weight="800" fill="#15803d" text-anchor="middle">+</text>
  <text x="690" y="385" font-size="10" font-weight="700" fill="#15803d" text-anchor="middle">Fork Dual AI &amp;</text>
  <text x="690" y="397" font-size="10" font-weight="700" fill="#15803d" text-anchor="middle">Vectorization</text>

  <!-- Branch A: Ollama Llama 3.3 (Lane 3) -->
  <rect x="760" y="465" width="170" height="75" rx="8" fill="#ffffff" stroke="#2563eb" stroke-width="2" filter="url(#task-shadow)" />
  <circle cx="778" cy="483" r="8" fill="#eff6ff" stroke="#2563eb" stroke-width="1.2" />
  <text x="792" y="487" font-size="9" font-weight="700" fill="#2563eb">ASYNC SERVICE TASK</text>
  <text x="845" y="506" font-size="11" font-weight="700" fill="#0f172a" text-anchor="middle">Llama 3.3 (70B Instruct)</text>
  <text x="845" y="520" font-size="10" font-weight="500" fill="#475569" text-anchor="middle">Analytical Deep Dive</text>
  <rect x="770" y="525" width="150" height="12" rx="3" fill="#eff6ff" />
  <text x="845" y="534" font-size="8" font-family="monospace" font-weight="600" fill="#1d4ed8" text-anchor="middle">Retries: R3/PT10S · Spring AI</text>

  <!-- Branch B: Ollama Mistral Large (Lane 3) -->
  <rect x="760" y="555" width="170" height="75" rx="8" fill="#ffffff" stroke="#059669" stroke-width="2" filter="url(#task-shadow)" />
  <circle cx="778" cy="573" r="8" fill="#ecfdf5" stroke="#059669" stroke-width="1.2" />
  <text x="792" y="577" font-size="9" font-weight="700" fill="#059669">ASYNC SERVICE TASK</text>
  <text x="845" y="596" font-size="11" font-weight="700" fill="#0f172a" text-anchor="middle">Mistral Large (2411)</text>
  <text x="845" y="610" font-size="10" font-weight="500" fill="#475569" text-anchor="middle">Executive Synthesis</text>
  <rect x="770" y="615" width="150" height="12" rx="3" fill="#ecfdf5" />
  <text x="845" y="624" font-size="8" font-family="monospace" font-weight="600" fill="#047857" text-anchor="middle">Retries: R3/PT10S · Spring AI</text>

  <!-- Branch C: Qdrant Vector Chunk & Embed (Lane 4) -->
  <rect x="760" y="685" width="170" height="75" rx="8" fill="#ffffff" stroke="#7c3aed" stroke-width="2" filter="url(#task-shadow)" />
  <circle cx="778" cy="703" r="8" fill="#f5f3ff" stroke="#7c3aed" stroke-width="1.2" />
  <text x="792" y="707" font-size="9" font-weight="700" fill="#7c3aed">ASYNC SERVICE TASK</text>
  <text x="845" y="726" font-size="11" font-weight="700" fill="#0f172a" text-anchor="middle">Paragraph Chunking</text>
  <text x="845" y="740" font-size="10" font-weight="500" fill="#475569" text-anchor="middle">&amp; Qdrant Vector Upsert</text>
  <rect x="770" y="745" width="150" height="12" rx="3" fill="#f5f3ff" />
  <text x="845" y="754" font-size="8" font-family="monospace" font-weight="600" fill="#6d28d9" text-anchor="middle">collection: library_embeddings</text>

  <!-- Parallel Join Gateway (Lane 2) -->
  <polygon points="985,340 1010,315 1035,340 1010,365" fill="#dcfce7" stroke="#16a34a" stroke-width="2.5" />
  <text x="1010" y="347" font-size="18" font-weight="800" fill="#15803d" text-anchor="middle">+</text>
  <text x="1010" y="385" font-size="10" font-weight="700" fill="#15803d" text-anchor="middle">Join AI Telemetry</text>
  <text x="1010" y="397" font-size="10" font-weight="700" fill="#15803d" text-anchor="middle">&amp; Vector Chunks</text>

  <!-- Service Task: Persist Document Record in MongoDB (Lane 2) -->
  <rect x="1080" y="300" width="145" height="80" rx="8" fill="#ffffff" stroke="#0d9488" stroke-width="2" filter="url(#task-shadow)" />
  <circle cx="1098" cy="318" r="8" fill="#f0fdfa" stroke="#0d9488" stroke-width="1.2" />
  <text x="1112" y="322" font-size="9" font-weight="700" fill="#0d9488" letter-spacing="0.5">SERVICE TASK</text>
  <text x="1152" y="342" font-size="11" font-weight="600" fill="#0f172a" text-anchor="middle">Persist Entity</text>
  <text x="1152" y="356" font-size="11" font-weight="600" fill="#0f172a" text-anchor="middle">in MongoDB</text>
  <rect x="1090" y="365" width="125" height="12" rx="3" fill="#f1f5f9" />
  <text x="1152" y="374" font-size="8" font-family="monospace" font-weight="500" fill="#0f766e" text-anchor="middle">${documentPersistenceDelegate}</text>

  <!-- Service Task: Keycloak Security Audit (Lane 2) -->
  <rect x="1270" y="300" width="145" height="80" rx="8" fill="#ffffff" stroke="#0284c7" stroke-width="2" filter="url(#task-shadow)" />
  <circle cx="1288" cy="318" r="8" fill="#f0f9ff" stroke="#0284c7" stroke-width="1.2" />
  <text x="1302" y="322" font-size="9" font-weight="700" fill="#0284c7" letter-spacing="0.5">SERVICE TASK</text>
  <text x="1342" y="342" font-size="11" font-weight="600" fill="#0f172a" text-anchor="middle">Keycloak Security</text>
  <text x="1342" y="356" font-size="11" font-weight="600" fill="#0f172a" text-anchor="middle">Audit Logging</text>
  <rect x="1280" y="365" width="125" height="12" rx="3" fill="#f1f5f9" />
  <text x="1342" y="374" font-size="8" font-family="monospace" font-weight="500" fill="#0369a1" text-anchor="middle">${securityAuditDelegate}</text>

  <!-- Send Task: Broadcast WebSocket / EventBus Notification (Lane 1) -->
  <rect x="1460" y="110" width="145" height="80" rx="8" fill="#ffffff" stroke="#16a34a" stroke-width="2" filter="url(#task-shadow)" />
  <circle cx="1478" cy="128" r="8" fill="#f0fdf4" stroke="#16a34a" stroke-width="1.2" />
  <path d="M 1474 125 L 1482 131 L 1474 131 z" fill="#16a34a" />
  <text x="1492" y="132" font-size="9" font-weight="700" fill="#16a34a" letter-spacing="0.5">SEND TASK</text>
  <text x="1532" y="152" font-size="11" font-weight="600" fill="#0f172a" text-anchor="middle">Broadcast Ingestion</text>
  <text x="1532" y="166" font-size="11" font-weight="600" fill="#0f172a" text-anchor="middle">Complete Notification</text>
  <rect x="1470" y="174" width="125" height="12" rx="3" fill="#f1f5f9" />
  <text x="1532" y="183" font-size="8" font-family="monospace" font-weight="500" fill="#15803d" text-anchor="middle">EventBus / WebSocket</text>

  <!-- End Event: Document Ready (Lane 1) -->
  <circle cx="1660" cy="150" r="20" fill="#f8fafc" stroke="#dc2626" stroke-width="4.5" />
  <circle cx="1660" cy="150" r="11" fill="#dc2626" />
  <text x="1660" y="190" font-size="10.5" font-weight="700" fill="#1e293b" text-anchor="middle">Document Ready</text>
  <text x="1660" y="204" font-size="9.5" font-weight="500" fill="#16a34a" text-anchor="middle">&amp; RAG Searchable</text>

  <!-- ======================================================== -->
  <!-- TRANSITIONS / SEQUENCE FLOWS                             -->
  <!-- ======================================================== -->

  <!-- Start -> Extract -->
  <path d="M 150 150 L 175 150 L 175 340 L 200 340" fill="none" stroke="#334155" stroke-width="1.8" marker-end="url(#bpmn-arrow)" />

  <!-- Extract -> Validate -->
  <path d="M 340 340 L 380 340" fill="none" stroke="#334155" stroke-width="1.8" marker-end="url(#bpmn-arrow)" />

  <!-- Validate -> Gateway -->
  <path d="M 520 340 L 565 340" fill="none" stroke="#334155" stroke-width="1.8" marker-end="url(#bpmn-arrow)" />

  <!-- Gateway -> Fork (Valid) -->
  <path d="M 615 340 L 665 340" fill="none" stroke="#16a34a" stroke-width="2" marker-end="url(#bpmn-arrow)" />
  <text x="640" y="333" font-size="10" font-weight="700" fill="#16a34a" text-anchor="middle">[Valid]</text>

  <!-- Gateway -> Review User Task (Invalid) -->
  <path d="M 590 315 L 590 190" fill="none" stroke="#dc2626" stroke-width="1.8" marker-end="url(#bpmn-arrow)" />
  <text x="605" y="255" font-size="9.5" font-weight="600" fill="#dc2626">[isValid == false]</text>

  <!-- Review User Task -> Validate (Loop back, enters perpendicularly from above at x=450, y=300) -->
  <path d="M 520 150 L 450 150 L 450 300" fill="none" stroke="#8b5cf6" stroke-width="1.8" stroke-dasharray="4 3" marker-end="url(#bpmn-arrow)" />

  <!-- Fork -> Llama (Branch A, perpendicular horizontal entry into x=760, y=502) -->
  <path d="M 690 365 L 690 502 L 760 502" fill="none" stroke="#2563eb" stroke-width="1.8" marker-end="url(#bpmn-arrow)" />

  <!-- Fork -> Mistral (Branch B, perpendicular horizontal entry into x=760, y=592) -->
  <path d="M 690 365 L 690 592 L 760 592" fill="none" stroke="#059669" stroke-width="1.8" marker-end="url(#bpmn-arrow)" />

  <!-- Fork -> Qdrant (Branch C, perpendicular horizontal entry into x=760, y=722) -->
  <path d="M 690 365 L 690 722 L 760 722" fill="none" stroke="#7c3aed" stroke-width="1.8" marker-end="url(#bpmn-arrow)" />

  <!-- Llama -> Join (Branch A enters left vertex of Join diamond perpendicularly at x=985, y=340) -->
  <path d="M 930 502 L 965 502 L 965 340 L 985 340" fill="none" stroke="#2563eb" stroke-width="1.8" marker-end="url(#bpmn-arrow)" />

  <!-- Mistral -> Join (Branch B enters bottom vertex of Join diamond perpendicularly at x=1010, y=365) -->
  <path d="M 930 592 L 1010 592 L 1010 365" fill="none" stroke="#059669" stroke-width="1.8" marker-end="url(#bpmn-arrow)" />

  <!-- Qdrant -> Join (Branch C joins return trunk orthogonally at x=1010, y=657 then flows up to Join) -->
  <path d="M 930 722 L 1010 722 L 1010 592" fill="none" stroke="#7c3aed" stroke-width="1.8" />

  <!-- Join -> Persist -->
  <path d="M 1035 340 L 1080 340" fill="none" stroke="#334155" stroke-width="1.8" marker-end="url(#bpmn-arrow)" />

  <!-- Persist -> KeycloakAudit -->
  <path d="M 1225 340 L 1270 340" fill="none" stroke="#334155" stroke-width="1.8" marker-end="url(#bpmn-arrow)" />

  <!-- KeycloakAudit -> Broadcast Send Task -->
  <path d="M 1415 340 L 1435 340 L 1435 150 L 1460 150" fill="none" stroke="#334155" stroke-width="1.8" marker-end="url(#bpmn-arrow)" />

  <!-- Broadcast Send Task -> End Event -->
  <path d="M 1605 150 L 1640 150" fill="none" stroke="#16a34a" stroke-width="2" marker-end="url(#bpmn-arrow)" />

</svg>